ffmpeg started on 2025-05-12 at 21:31:09
Report written to "D:\Convert\FFMetrics\reports\psnr_report-6.txt"
Log level: 32
Command line:
ffmpeg -hide_banner -nostdin -i "G:\\\xc0\xed\xe8\xec\xe5\\\xce\xed\xe3\xee\xe8\xed\xe3\xe8\\!_35_\xcb\xe5\xf2\xee_2024\\DreamCast-1\\\xd1\xe0\xec\xfb\xe9 \xf1\xe8\xeb\xfc\xed\xfb\xe9 \xe2\xee\xeb\xf8\xe5\xe1\xed\xe8\xea \xe0\xf0\xec\xe8\xe8 \xef\xee\xe2\xe5\xeb\xe8\xf2\xe5\xeb\xff \xe4\xe5\xec\xee\xed\xee\xe2 \xee\xea\xe0\xe7\xe0\xeb\xf1\xff \xf7\xe5\xeb\xee\xe2\xe5\xea\xee\xec\\DC_Maou_Gun_Saikyou_no_Majutsushi_wa_Ningen_datta_11_Telegram_HEVC.mkv" -i "G:\\\xc0\xed\xe8\xec\xe5\\\xce\xed\xe3\xee\xe8\xed\xe3\xe8\\!_35_\xcb\xe5\xf2\xee_2024\\DreamCast-1\\\xd1\xe0\xec\xfb\xe9 \xf1\xe8\xeb\xfc\xed\xfb\xe9 \xe2\xee\xeb\xf8\xe5\xe1\xed\xe8\xea \xe0\xf0\xec\xe8\xe8 \xef\xee\xe2\xe5\xeb\xe8\xf2\xe5\xeb\xff \xe4\xe5\xec\xee\xed\xee\xe2 \xee\xea\xe0\xe7\xe0\xeb\xf1\xff \xf7\xe5\xeb\xee\xe2\xe5\xea\xee\xec\\DC_Maou_Gun_Saikyou_no_Majutsushi_wa_Ningen_datta_11_Telegram.mp4" -lavfi "[0:v]settb=AVTB,setpts=PTS-STARTPTS,format=pix_fmts=yuv420p10,fps=24000/1001,scale=1920:1080:flags=bicubic[main];[1:v]settb=AVTB,setpts=PTS-STARTPTS,format=pix_fmts=yuv420p,fps=24000/1001,scale=1920:1080:flags=bicubic[ref];[main][ref]psnr=eof_action=endall:stats_file='D\\:/Convert/FFMetrics/logs/psnr_logfile-6.txt'" -f null -
Input #0, matroska,webm, from 'G:\Аниме\Онгоинги\!_35_Лето_2024\DreamCast-1\Самый сильный волшебник армии повелителя демонов оказался человеком\DC_Maou_Gun_Saikyou_no_Majutsushi_wa_Ningen_datta_11_Telegram_HEVC.mkv':
  Metadata:
    COMPATIBLE_BRANDS: isomiso2avc1mp41
    MAJOR_BRAND     : isom
    MINOR_VERSION   : 512
    ENCODER         : Lavf61.7.100
  Duration: 00:23:46.73, start: -0.021000, bitrate: 994 kb/s
  Stream #0:0: Video: hevc (Main 10), yuv420p10le(tv, bt709, progressive), 1920x1080 [SAR 1:1 DAR 16:9], 23.98 fps, 23.98 tbr, 1k tbn (default)
      Metadata:
        HANDLER_NAME    : VideoHandler
        VENDOR_ID       : [0][0][0][0]
        ENCODER         : Lavc61.19.100 libx265
        BPS             : 797624
        DURATION        : 00:23:46.549708333
        NUMBER_OF_FRAMES: 34203
        NUMBER_OF_BYTES : 142231377
        _STATISTICS_WRITING_APP: mkvpropedit v66.0.0 ('Josie') 64-bit
        _STATISTICS_WRITING_DATE_UTC: 2025-05-10 16:56:21
        _STATISTICS_TAGS: BPS DURATION NUMBER_OF_FRAMES NUMBER_OF_BYTES
  Stream #0:1: Audio: aac (LC), 48000 Hz, stereo, fltp (default)
      Metadata:
        HANDLER_NAME    : SoundHandler
        VENDOR_ID       : [0][0][0][0]
        ENCODER         : Lavc61.19.100 aac
        BPS             : 193357
        DURATION        : 00:23:46.730000000
        NUMBER_OF_FRAMES: 66879
        NUMBER_OF_BYTES : 34483610
        _STATISTICS_WRITING_APP: mkvpropedit v66.0.0 ('Josie') 64-bit
        _STATISTICS_WRITING_DATE_UTC: 2025-05-10 16:56:21
        _STATISTICS_TAGS: BPS DURATION NUMBER_OF_FRAMES NUMBER_OF_BYTES
Input #1, mov,mp4,m4a,3gp,3g2,mj2, from 'G:\Аниме\Онгоинги\!_35_Лето_2024\DreamCast-1\Самый сильный волшебник армии повелителя демонов оказался человеком\DC_Maou_Gun_Saikyou_no_Majutsushi_wa_Ningen_datta_11_Telegram.mp4':
  Metadata:
    major_brand     : isom
    minor_version   : 512
    compatible_brands: isomiso2avc1mp41
    encoder         : Lavf61.1.100
  Duration: 00:23:46.68, start: 0.000000, bitrate: 3461 kb/s
  Stream #1:0[0x1](und): Video: h264 (High) (avc1 / 0x31637661), yuv420p(tv, bt709, progressive), 1920x1080 [SAR 1:1 DAR 16:9], 3313 kb/s, 23.98 fps, 23.98 tbr, 24k tbn (default)
      Metadata:
        handler_name    : VideoHandler
        vendor_id       : [0][0][0][0]
        encoder         : Lavc61.3.100 h264_qsv
  Stream #1:1[0x2](und): Audio: aac (HE-AACv2) (mp4a / 0x6134706D), 48000 Hz, stereo, fltp, 144 kb/s (default)
      Metadata:
        handler_name    : SoundHandler
        vendor_id       : [0][0][0][0]
Stream mapping:
  Stream #0:0 (hevc) -> settb:default
  Stream #1:0 (h264) -> settb:default
  psnr:default -> Stream #0:0 (wrapped_avframe)
  Stream #0:1 -> #0:1 (aac (native) -> pcm_s16le (native))
Output #0, null, to 'pipe:':
  Metadata:
    COMPATIBLE_BRANDS: isomiso2avc1mp41
    MAJOR_BRAND     : isom
    MINOR_VERSION   : 512
    encoder         : Lavf61.7.100
  Stream #0:0: Video: wrapped_avframe, yuv420p10le(tv, bt709, progressive), 1920x1080 [SAR 1:1 DAR 16:9], q=2-31, 200 kb/s, 23.98 fps, 23.98 tbn
      Metadata:
        encoder         : Lavc61.19.100 wrapped_avframe
  Stream #0:1: Audio: pcm_s16le, 48000 Hz, stereo, s16, 1536 kb/s (default)
      Metadata:
        HANDLER_NAME    : SoundHandler
        VENDOR_ID       : [0][0][0][0]
        _STATISTICS_TAGS: BPS DURATION NUMBER_OF_FRAMES NUMBER_OF_BYTES
        BPS             : 193357
        DURATION        : 00:23:46.730000000
        NUMBER_OF_FRAMES: 66879
        NUMBER_OF_BYTES : 34483610
        _STATISTICS_WRITING_APP: mkvpropedit v66.0.0 ('Josie') 64-bit
        _STATISTICS_WRITING_DATE_UTC: 2025-05-10 16:56:21
        encoder         : Lavc61.19.100 pcm_s16le
frame=  152 fps=0.0 q=-0.0 size=N/A time=00:00:06.33 bitrate=N/A speed=12.3x    frame=  384 fps=376 q=-0.0 size=N/A time=00:00:16.01 bitrate=N/A speed=15.7x    frame=  649 fps=419 q=-0.0 size=N/A time=00:00:27.06 bitrate=N/A speed=17.5x    frame=  888 fps=430 q=-0.0 size=N/A time=00:00:37.03 bitrate=N/A speed=17.9x    frame= 1126 fps=437 q=-0.0 size=N/A time=00:00:46.96 bitrate=N/A speed=18.2x    frame= 1359 fps=441 q=-0.0 size=N/A time=00:00:56.68 bitrate=N/A speed=18.4x    frame= 1562 fps=433 q=-0.0 size=N/A time=00:01:05.14 bitrate=N/A speed=18.1x    frame= 1806 fps=438 q=-0.0 size=N/A time=00:01:15.32 bitrate=N/A speed=18.3x    frame= 2029 fps=438 q=-0.0 size=N/A time=00:01:24.62 bitrate=N/A speed=18.3x    frame= 2277 fps=441 q=-0.0 size=N/A time=00:01:34.96 bitrate=N/A speed=18.4x    frame= 2470 fps=435 q=-0.0 size=N/A time=00:01:43.01 bitrate=N/A speed=18.1x    frame= 2665 fps=430 q=-0.0 size=N/A time=00:01:51.15 bitrate=N/A speed=17.9x    frame= 2901 fps=432 q=-0.0 size=N/A time=00:02:00.99 bitrate=N/A speed=  18x    frame= 3139 fps=434 q=-0.0 size=N/A time=00:02:10.92 bitrate=N/A speed=18.1x    frame= 3335 fps=430 q=-0.0 size=N/A time=00:02:19.09 bitrate=N/A speed=17.9x    frame= 3530 fps=427 q=-0.0 size=N/A time=00:02:27.23 bitrate=N/A speed=17.8x    frame= 3736 fps=425 q=-0.0 size=N/A time=00:02:35.82 bitrate=N/A speed=17.7x    frame= 3956 fps=425 q=-0.0 size=N/A time=00:02:44.99 bitrate=N/A speed=17.7x    frame= 4197 fps=428 q=-0.0 size=N/A time=00:02:55.04 bitrate=N/A speed=17.8x    frame= 4383 fps=424 q=-0.0 size=N/A time=00:03:02.80 bitrate=N/A speed=17.7x    frame= 4590 fps=423 q=-0.0 size=N/A time=00:03:11.44 bitrate=N/A speed=17.7x    frame= 4790 fps=422 q=-0.0 size=N/A time=00:03:19.78 bitrate=N/A speed=17.6x    frame= 5004 fps=421 q=-0.0 size=N/A time=00:03:28.70 bitrate=N/A speed=17.6x    frame= 5202 fps=420 q=-0.0 size=N/A time=00:03:36.96 bitrate=N/A speed=17.5x    frame= 5400 fps=419 q=-0.0 size=N/A time=00:03:45.22 bitrate=N/A speed=17.5x    frame= 5606 fps=418 q=-0.0 size=N/A time=00:03:53.81 bitrate=N/A speed=17.4x    frame= 5802 fps=417 q=-0.0 size=N/A time=00:04:01.99 bitrate=N/A speed=17.4x    frame= 6021 fps=417 q=-0.0 size=N/A time=00:04:11.12 bitrate=N/A speed=17.4x    frame= 6237 fps=417 q=-0.0 size=N/A time=00:04:20.13 bitrate=N/A speed=17.4x    frame= 6489 fps=419 q=-0.0 size=N/A time=00:04:30.64 bitrate=N/A speed=17.5x    frame= 6747 fps=422 q=-0.0 size=N/A time=00:04:41.40 bitrate=N/A speed=17.6x    frame= 6998 fps=424 q=-0.0 size=N/A time=00:04:51.87 bitrate=N/A speed=17.7x    frame= 7253 fps=426 q=-0.0 size=N/A time=00:05:02.51 bitrate=N/A speed=17.8x    frame= 7483 fps=427 q=-0.0 size=N/A time=00:05:12.10 bitrate=N/A speed=17.8x    frame= 7703 fps=426 q=-0.0 size=N/A time=00:05:21.32 bitrate=N/A speed=17.8x    frame= 7941 fps=427 q=-0.0 size=N/A time=00:05:31.20 bitrate=N/A speed=17.8x    frame= 8205 fps=430 q=-0.0 size=N/A time=00:05:42.21 bitrate=N/A speed=17.9x    frame= 8459 fps=431 q=-0.0 size=N/A time=00:05:52.81 bitrate=N/A speed=  18x    frame= 8732 fps=434 q=-0.0 size=N/A time=00:06:04.19 bitrate=N/A speed=18.1x    frame= 8993 fps=436 q=-0.0 size=N/A time=00:06:15.08 bitrate=N/A speed=18.2x    frame= 9237 fps=437 q=-0.0 size=N/A time=00:06:25.25 bitrate=N/A speed=18.2x    frame= 9480 fps=437 q=-0.0 size=N/A time=00:06:35.43 bitrate=N/A speed=18.2x    frame= 9735 fps=439 q=-0.0 size=N/A time=00:06:46.03 bitrate=N/A speed=18.3x    frame= 9990 fps=440 q=-0.0 size=N/A time=00:06:56.66 bitrate=N/A speed=18.4x    frame=10257 fps=442 q=-0.0 size=N/A time=00:07:07.80 bitrate=N/A speed=18.4x    frame=10524 fps=443 q=-0.0 size=N/A time=00:07:18.93 bitrate=N/A speed=18.5x    frame=10784 fps=445 q=-0.0 size=N/A time=00:07:29.78 bitrate=N/A speed=18.6x    frame=11022 fps=445 q=-0.0 size=N/A time=00:07:39.70 bitrate=N/A speed=18.6x    frame=11277 fps=446 q=-0.0 size=N/A time=00:07:50.34 bitrate=N/A speed=18.6x    frame=11544 fps=448 q=-0.0 size=N/A time=00:08:01.48 bitrate=N/A speed=18.7x    frame=11750 fps=446 q=-0.0 size=N/A time=00:08:10.07 bitrate=N/A speed=18.6x    frame=11939 fps=445 q=-0.0 size=N/A time=00:08:17.95 bitrate=N/A speed=18.6x    frame=12169 fps=445 q=-0.0 size=N/A time=00:08:27.54 bitrate=N/A speed=18.6x    frame=12410 fps=446 q=-0.0 size=N/A time=00:08:37.60 bitrate=N/A speed=18.6x    frame=12666 fps=446 q=-0.0 size=N/A time=00:08:48.27 bitrate=N/A speed=18.6x    frame=12914 fps=447 q=-0.0 size=N/A time=00:08:58.62 bitrate=N/A speed=18.6x    frame=13172 fps=448 q=-0.0 size=N/A time=00:09:09.38 bitrate=N/A speed=18.7x    frame=13429 fps=449 q=-0.0 size=N/A time=00:09:20.10 bitrate=N/A speed=18.7x    frame=13687 fps=450 q=-0.0 size=N/A time=00:09:30.86 bitrate=N/A speed=18.8x    frame=13937 fps=450 q=-0.0 size=N/A time=00:09:41.28 bitrate=N/A speed=18.8x    frame=14171 fps=450 q=-0.0 size=N/A time=00:09:51.04 bitrate=N/A speed=18.8x    frame=14427 fps=451 q=-0.0 size=N/A time=00:10:01.72 bitrate=N/A speed=18.8x    frame=14641 fps=451 q=-0.0 size=N/A time=00:10:10.65 bitrate=N/A speed=18.8x    frame=14857 fps=450 q=-0.0 size=N/A time=00:10:19.66 bitrate=N/A speed=18.8x    frame=15076 fps=450 q=-0.0 size=N/A time=00:10:28.79 bitrate=N/A speed=18.8x    frame=15271 fps=449 q=-0.0 size=N/A time=00:10:36.92 bitrate=N/A speed=18.7x    frame=15494 fps=448 q=-0.0 size=N/A time=00:10:46.22 bitrate=N/A speed=18.7x    frame=15694 fps=447 q=-0.0 size=N/A time=00:10:54.57 bitrate=N/A speed=18.7x    frame=15900 fps=447 q=-0.0 size=N/A time=00:11:03.16 bitrate=N/A speed=18.6x    frame=16121 fps=446 q=-0.0 size=N/A time=00:11:12.38 bitrate=N/A speed=18.6x    frame=16360 fps=447 q=-0.0 size=N/A time=00:11:22.34 bitrate=N/A speed=18.6x    frame=16576 fps=446 q=-0.0 size=N/A time=00:11:31.35 bitrate=N/A speed=18.6x    frame=16792 fps=446 q=-0.0 size=N/A time=00:11:40.36 bitrate=N/A speed=18.6x    frame=17008 fps=445 q=-0.0 size=N/A time=00:11:49.37 bitrate=N/A speed=18.6x    frame=17210 fps=445 q=-0.0 size=N/A time=00:11:57.80 bitrate=N/A speed=18.5x    frame=17442 fps=445 q=-0.0 size=N/A time=00:12:07.47 bitrate=N/A speed=18.5x    frame=17694 fps=445 q=-0.0 size=N/A time=00:12:17.98 bitrate=N/A speed=18.6x    frame=17923 fps=445 q=-0.0 size=N/A time=00:12:27.53 bitrate=N/A speed=18.6x    frame=18130 fps=445 q=-0.0 size=N/A time=00:12:36.17 bitrate=N/A speed=18.5x    frame=18331 fps=444 q=-0.0 size=N/A time=00:12:44.55 bitrate=N/A speed=18.5x    frame=18565 fps=444 q=-0.0 size=N/A time=00:12:54.31 bitrate=N/A speed=18.5x    frame=18825 fps=445 q=-0.0 size=N/A time=00:13:05.15 bitrate=N/A speed=18.6x    frame=19086 fps=446 q=-0.0 size=N/A time=00:13:16.04 bitrate=N/A speed=18.6x    frame=19326 fps=446 q=-0.0 size=N/A time=00:13:26.05 bitrate=N/A speed=18.6x    frame=19568 fps=446 q=-0.0 size=N/A time=00:13:36.14 bitrate=N/A speed=18.6x    frame=19806 fps=446 q=-0.0 size=N/A time=00:13:46.07 bitrate=N/A speed=18.6x    frame=20023 fps=446 q=-0.0 size=N/A time=00:13:55.12 bitrate=N/A speed=18.6x    frame=20241 fps=446 q=-0.0 size=N/A time=00:14:04.21 bitrate=N/A speed=18.6x    frame=20457 fps=446 q=-0.0 size=N/A time=00:14:13.22 bitrate=N/A speed=18.6x    frame=20697 fps=446 q=-0.0 size=N/A time=00:14:23.23 bitrate=N/A speed=18.6x    frame=20948 fps=446 q=-0.0 size=N/A time=00:14:33.70 bitrate=N/A speed=18.6x    frame=21210 fps=447 q=-0.0 size=N/A time=00:14:44.63 bitrate=N/A speed=18.6x    frame=21469 fps=447 q=-0.0 size=N/A time=00:14:55.43 bitrate=N/A speed=18.7x    frame=21721 fps=448 q=-0.0 size=N/A time=00:15:05.98 bitrate=N/A speed=18.7x    frame=21987 fps=449 q=-0.0 size=N/A time=00:15:17.04 bitrate=N/A speed=18.7x    frame=22224 fps=449 q=-0.0 size=N/A time=00:15:26.92 bitrate=N/A speed=18.7x    frame=22478 fps=449 q=-0.0 size=N/A time=00:15:37.51 bitrate=N/A speed=18.7x    frame=22738 fps=450 q=-0.0 size=N/A time=00:15:48.36 bitrate=N/A speed=18.8x    frame=22997 fps=450 q=-0.0 size=N/A time=00:15:59.16 bitrate=N/A speed=18.8x    frame=23254 fps=451 q=-0.0 size=N/A time=00:16:09.88 bitrate=N/A speed=18.8x    frame=23520 fps=451 q=-0.0 size=N/A time=00:16:20.98 bitrate=N/A speed=18.8x    frame=23756 fps=451 q=-0.0 size=N/A time=00:16:30.82 bitrate=N/A speed=18.8x    frame=23985 fps=451 q=-0.0 size=N/A time=00:16:40.37 bitrate=N/A speed=18.8x    frame=24215 fps=451 q=-0.0 size=N/A time=00:16:49.96 bitrate=N/A speed=18.8x    frame=24464 fps=452 q=-0.0 size=N/A time=00:17:00.35 bitrate=N/A speed=18.8x    frame=24701 fps=452 q=-0.0 size=N/A time=00:17:10.23 bitrate=N/A speed=18.8x    frame=24956 fps=452 q=-0.0 size=N/A time=00:17:20.87 bitrate=N/A speed=18.9x    frame=25150 fps=451 q=-0.0 size=N/A time=00:17:28.96 bitrate=N/A speed=18.8x    frame=25351 fps=451 q=-0.0 size=N/A time=00:17:37.34 bitrate=N/A speed=18.8x    frame=25523 fps=450 q=-0.0 size=N/A time=00:17:44.52 bitrate=N/A speed=18.8x    frame=25765 fps=450 q=-0.0 size=N/A time=00:17:54.61 bitrate=N/A speed=18.8x    frame=26008 fps=450 q=-0.0 size=N/A time=00:18:04.75 bitrate=N/A speed=18.8x    frame=26280 fps=451 q=-0.0 size=N/A time=00:18:16.09 bitrate=N/A speed=18.8x    frame=26522 fps=451 q=-0.0 size=N/A time=00:18:26.18 bitrate=N/A speed=18.8x    frame=26737 fps=451 q=-0.0 size=N/A time=00:18:35.15 bitrate=N/A speed=18.8x    frame=26980 fps=451 q=-0.0 size=N/A time=00:18:45.29 bitrate=N/A speed=18.8x    frame=27192 fps=450 q=-0.0 size=N/A time=00:18:54.13 bitrate=N/A speed=18.8x    frame=27424 fps=450 q=-0.0 size=N/A time=00:19:03.80 bitrate=N/A speed=18.8x    frame=27674 fps=451 q=-0.0 size=N/A time=00:19:14.23 bitrate=N/A speed=18.8x    frame=27919 fps=451 q=-0.0 size=N/A time=00:19:24.45 bitrate=N/A speed=18.8x    frame=28171 fps=451 q=-0.0 size=N/A time=00:19:34.96 bitrate=N/A speed=18.8x    frame=28373 fps=451 q=-0.0 size=N/A time=00:19:43.39 bitrate=N/A speed=18.8x    frame=28608 fps=451 q=-0.0 size=N/A time=00:19:53.19 bitrate=N/A speed=18.8x    frame=28844 fps=451 q=-0.0 size=N/A time=00:20:03.03 bitrate=N/A speed=18.8x    frame=29097 fps=451 q=-0.0 size=N/A time=00:20:13.58 bitrate=N/A speed=18.8x    frame=29357 fps=452 q=-0.0 size=N/A time=00:20:24.43 bitrate=N/A speed=18.8x    frame=29565 fps=451 q=-0.0 size=N/A time=00:20:33.10 bitrate=N/A speed=18.8x    frame=29813 fps=451 q=-0.0 size=N/A time=00:20:43.45 bitrate=N/A speed=18.8x    frame=30071 fps=452 q=-0.0 size=N/A time=00:20:54.21 bitrate=N/A speed=18.8x    frame=30326 fps=452 q=-0.0 size=N/A time=00:21:04.84 bitrate=N/A speed=18.9x    frame=30584 fps=452 q=-0.0 size=N/A time=00:21:15.60 bitrate=N/A speed=18.9x    frame=30843 fps=453 q=-0.0 size=N/A time=00:21:26.41 bitrate=N/A speed=18.9x    frame=31109 fps=453 q=-0.0 size=N/A time=00:21:37.50 bitrate=N/A speed=18.9x    frame=31387 fps=454 q=-0.0 size=N/A time=00:21:49.09 bitrate=N/A speed=18.9x    frame=31621 fps=454 q=-0.0 size=N/A time=00:21:58.85 bitrate=N/A speed=18.9x    frame=31843 fps=454 q=-0.0 size=N/A time=00:22:08.11 bitrate=N/A speed=18.9x    frame=32057 fps=454 q=-0.0 size=N/A time=00:22:17.04 bitrate=N/A speed=18.9x    frame=32262 fps=453 q=-0.0 size=N/A time=00:22:25.59 bitrate=N/A speed=18.9x    frame=32467 fps=453 q=-0.0 size=N/A time=00:22:34.14 bitrate=N/A speed=18.9x    frame=32664 fps=452 q=-0.0 size=N/A time=00:22:42.36 bitrate=N/A speed=18.9x    frame=32862 fps=452 q=-0.0 size=N/A time=00:22:50.61 bitrate=N/A speed=18.8x    frame=33058 fps=451 q=-0.0 size=N/A time=00:22:58.79 bitrate=N/A speed=18.8x    frame=33265 fps=451 q=-0.0 size=N/A time=00:23:07.42 bitrate=N/A speed=18.8x    frame=33467 fps=450 q=-0.0 size=N/A time=00:23:15.85 bitrate=N/A speed=18.8x    frame=33661 fps=450 q=-0.0 size=N/A time=00:23:23.94 bitrate=N/A speed=18.8x    frame=33867 fps=450 q=-0.0 size=N/A time=00:23:32.53 bitrate=N/A speed=18.8x    frame=34073 fps=449 q=-0.0 size=N/A time=00:23:41.12 bitrate=N/A speed=18.7x    [Parsed_psnr_10 @ 000002627e1c42c0] PSNR y:49.720363 u:50.418753 v:50.742814 average:49.987786 min:40.835785 max:inf
[out#0/null @ 00000262710ff5c0] video:14697KiB audio:267516KiB subtitle:0KiB other streams:0KiB global headers:0KiB muxing overhead: unknown
frame=34203 fps=449 q=-0.0 Lsize=N/A time=00:23:46.55 bitrate=N/A speed=18.7x    
